<svg id="Outline" height="512" viewBox="0 0 512 512" width="512" xmlns="http://www.w3.org/2000/svg"><path d="m392 128h-104v-104a8 8 0 0 0 -8-8h-48a8 8 0 0 0 -8 8v104h-104a24.027 24.027 0 0 0 -24 24v16a8 8 0 0 0 8 8h16.39l13.339 266.8a55.96 55.96 0 0 0 55.931 53.2h132.68a55.96 55.96 0 0 0 55.931-53.2l13.339-266.8h16.39a8 8 0 0 0 8-8v-16a24.028 24.028 0 0 0 -24-24zm-152-96h32v96h-32zm0 192v-48h32v48zm-16 0h-85.19l-2.4-48h87.59zm138.29 218a39.969 39.969 0 0 1 -39.95 38h-132.68a39.97 39.97 0 0 1 -39.95-38l-10.1-202h232.78zm10.9-218h-85.19v-48h87.59zm26.81-64h-288v-8a8.009 8.009 0 0 1 8-8h272a8.009 8.009 0 0 1 8 8z"/><path d="m192 416a24 24 0 1 0 24 24 24.027 24.027 0 0 0 -24-24zm0 32a8 8 0 1 1 8-8 8.009 8.009 0 0 1 -8 8z"/><path d="m240 384a24 24 0 1 0 -24 24 24.027 24.027 0 0 0 24-24zm-24 8a8 8 0 1 1 8-8 8.009 8.009 0 0 1 -8 8z"/><path d="m296 408a24 24 0 1 0 -24-24 24.028 24.028 0 0 0 24 24zm0-32a8 8 0 1 1 -8 8 8.009 8.009 0 0 1 8-8z"/><path d="m256 416a24 24 0 1 0 24 24 24.027 24.027 0 0 0 -24-24zm0 32a8 8 0 1 1 8-8 8.009 8.009 0 0 1 -8 8z"/><path d="m320 416a24 24 0 1 0 24 24 24.028 24.028 0 0 0 -24-24zm0 32a8 8 0 1 1 8-8 8.009 8.009 0 0 1 -8 8z"/></svg>