<?xml version="1.0" encoding="UTF-8"?>
<svg xmlns="http://www.w3.org/2000/svg" id="Outline" viewBox="0 0 512 512" width="512" height="512"><path d="M17.664,492.884A8,8,0,0,0,24,496H488a8,8,0,0,0,7.737-10.036C456.483,336.8,456,201.35,456,200a8,8,0,0,0-8-8H424v-8c0-92.636-75.364-168-168-168S88,91.364,88,184v8H64a8,8,0,0,0-8,8c0,1.351-.483,136.8-39.737,285.965A8,8,0,0,0,17.664,492.884ZM336,168H176a8,8,0,0,0-8,8v16H136v-8a120,120,0,0,1,240,0v8H344V176A8,8,0,0,0,336,168Zm-8,16v72a56.064,56.064,0,0,1-56,56H240a56.064,56.064,0,0,1-56-56V184Zm64,48h16v20.686l-8,8-8-8ZM256,32c83.813,0,152,68.187,152,152v32H392V184c0-74.991-61.009-136-136-136S120,109.009,120,184v32H104V184C104,100.187,172.187,32,256,32ZM104,232h16v20.686l-8,8-8-8ZM71.872,208H88v48a8,8,0,0,0,2.343,5.657l16,16a8,8,0,0,0,11.314,0l16-16A8,8,0,0,0,136,256V208h32v48a72.081,72.081,0,0,0,72,72h32a72.081,72.081,0,0,0,72-72V208h32v48a8,8,0,0,0,2.343,5.657l16,16a8,8,0,0,0,11.314,0l16-16A8,8,0,0,0,424,256V208h16.128c.727,30.7,5.559,145.51,37.546,272H34.326C66.313,353.51,71.145,238.7,71.872,208Z"/><path d="M224,264h64a8,8,0,0,0,8-8V224a8,8,0,0,0-8-8H224a8,8,0,0,0-8,8v32A8,8,0,0,0,224,264Zm8-32h48v16H232Z"/></svg>
