<svg xmlns="http://www.w3.org/2000/svg" viewBox="0 0 529.56 105.75"><defs><style>.cls-1,.cls-2,.cls-3{fill:#fff;}.cls-2{font-size:43.56px;stroke:#fff;stroke-miterlimit:10;stroke-width:0.75px;font-family:AdobeFanHeitiStd-Bold-B5pc-H, Adobe Fan Heiti Std;}.cls-3{font-size:27px;font-family:Roboto-Medium, Roboto;font-weight:500;}.cls-4{letter-spacing:-0.06em;}.cls-5{letter-spacing:-0.06em;}</style></defs><g id="圖層_2" data-name="圖層 2"><g id="圖層_1-2" data-name="圖層 1"><path class="cls-1" d="M23.15,31.43l3.4-8.17H46.64L36.77,48.11H0L15.66,7.6H71.49L39.15,91.68h8.51L73.19,25c3.5-9.15,10.1-18.39,19.42-22.47,11.14-4.88,22.84.11,31.3,7.83.84.75,10.27-6.58,11.63-7.3,8.39-4.45,19.32-4.08,27,1.74,13,9.91,6.08,27.52,2.26,40.28l-17.13,57.17-35,.05Q125,65.66,136.77,28.85c1-3.07,2.1-6.35,4.7-8.27s7.1-1.48,8.15,1.57c.55,1.6,0,3.34-.53,4.94L127.68,90.66l11.19.38c.95,0,6.47-20.25,7.12-22.29q3.48-10.87,6.94-21.75c2.13-6.67,5.09-13.56,6.29-20.44a24.43,24.43,0,0,0,.39-4c0-4.84-2-10-6.29-12.32-3.36-1.83-7.51-1.61-11.14-.39C130,13.9,127.39,26,123.69,36.68l-11.35,33-11.23,32.6h-33c1,0,5.8-16.25,6.42-18L81.15,65.7c2.21-6.2,4.35-12.43,6.65-18.6s4.07-12.62,7.1-18.52c1.2-2.34,6.35-12.07,9.85-9.34,4,3.14-.85,11.74-2,15.25L83.57,91.43H92c7.69-21.11,16.75-42.15,23.26-63.63a22.61,22.61,0,0,0,.78-3.25c1.92-12.12-11.85-18-21.61-13.3-8.19,3.9-9.91,13.55-12.79,21.3S75.81,48.27,72.9,56.13q-5.55,15-11.06,30c-2,5.34-4,10.67-5.82,16.06a.19.19,0,0,0,0,.07H21L55.49,17.13l-33.19.26-7.92,21.7,16.09.25,2.81-6.89H22.55Z"/><text class="cls-2" transform="translate(180.69 64.85)">采盟股份有限公司</text><text/><text class="cls-3" transform="translate(182.21 98.43)"><tspan class="cls-4">T</tspan><tspan x="14.81" y="0">ASA MENG CORPOR</tspan><tspan class="cls-5" x="262.8" y="0">A</tspan><tspan x="279.19" y="0">TION</tspan></text></g></g></svg>