<svg xmlns="http://www.w3.org/2000/svg" viewBox="0 0 529.76 110.44"><defs><style>.cls-1,.cls-2,.cls-3{fill:#fff;stroke:#fff;stroke-miterlimit:10;}.cls-2{font-size:44.34px;stroke-width:0.75px;font-family:AdobeFanHeitiStd-Bold-B5pc-H, Adobe Fan Heiti Std;}.cls-3{font-size:26.5px;font-family:Roboto-Medium, Roboto;font-weight:500;}.cls-4{letter-spacing:-0.06em;}.cls-5{letter-spacing:0em;}</style></defs><g id="圖層_2" data-name="圖層 2"><g id="圖層_1-2" data-name="圖層 1"><path class="cls-1" d="M23.88,31.93l3.4-8.17H47.37L37.5,48.61H.73L16.39,8.1H72.22L39.88,92.18h8.51L73.92,25.46C77.42,16.31,84,7.07,93.34,3c11.14-4.88,22.84.11,31.3,7.83.84.75,10.27-6.58,11.63-7.3,8.39-4.45,19.31-4.08,27,1.74,13,9.91,6.08,27.52,2.26,40.28l-17.13,57.17-35,.05q12.39-36.6,24.14-73.41c1-3.07,2.1-6.35,4.69-8.27s7.11-1.48,8.16,1.57c.55,1.6,0,3.34-.53,4.94L128.41,91.16l11.19.38c1,0,6.47-20.25,7.12-22.29q3.47-10.87,6.94-21.75c2.12-6.67,5.09-13.56,6.29-20.44a24.43,24.43,0,0,0,.39-4c0-4.84-2-10-6.29-12.32-3.36-1.83-7.51-1.61-11.14-.39-12.16,4.06-14.79,16.12-18.49,26.84l-11.35,33-11.23,32.6h-33c1,0,5.81-16.25,6.43-18L81.88,66.2c2.21-6.2,4.35-12.43,6.64-18.6S92.6,35,95.63,29.08c1.2-2.34,6.35-12.07,9.85-9.34,4,3.14-.85,11.74-2,15.25L84.3,91.93h8.43C100.42,70.82,109.48,49.78,116,28.3a22.61,22.61,0,0,0,.78-3.25c1.92-12.12-11.85-18-21.61-13.3C87,15.65,85.25,25.3,82.37,33.05s-5.83,15.72-8.74,23.58q-5.55,15-11.06,30c-2,5.34-4,10.67-5.82,16.06a.19.19,0,0,0,0,.07h-35L56.22,17.63,23,17.89l-7.92,21.7,16.09.25L34,33H23.28Z"/><text class="cls-2" transform="translate(174.7 68.96)">采盟股份有限公司</text><text/><text class="cls-3" transform="translate(177.42 102.76)"><tspan class="cls-4">T</tspan><tspan class="cls-5" x="14.53" y="0" xml:space="preserve">ASA  MENG  CORPOR</tspan><tspan class="cls-4" x="271.13" y="0">A</tspan><tspan x="287.22" y="0">TION</tspan></text></g></g></svg>